<svg xmlns="http://www.w3.org/2000/svg" viewBox="0 0 980 344" role="img" aria-label="GitHub activity">
  <style>
    .mono { font-family: ui-monospace, 'SF Mono', 'JetBrains Mono', Menlo, Consolas, monospace; }
    .fade { opacity: 0; animation: fade .7s ease forwards; }
    .f1 { animation-delay: .15s } .f2 { animation-delay: .35s }
    @keyframes fade { to { opacity: 1 } }
    .dot { animation: blink 1.6s steps(2, start) infinite; }
    @keyframes blink { 50% { opacity: .15 } }
    .scan { animation: scan 7s linear infinite; }
    @keyframes scan { from { transform: translateY(0) } to { transform: translateY(232px) } }
  </style>
  <defs>
    <pattern id="hz" width="8" height="8" patternTransform="rotate(45)" patternUnits="userSpaceOnUse">
      <rect width="4" height="8" fill="#FCEE0A"/>
    </pattern>
  </defs>

  <path d="M0.5 0.5 H961.5 L979.5 18.5 V343.5 H18.5 L0.5 325.5 Z" fill="#0B0E13" stroke="#26333C"/>
  <rect x="1" y="1" width="90" height="4" fill="url(#hz)" opacity=".9"/>
  <rect x="840" y="1" width="70" height="2" fill="#FF003C"/>

  <circle class="dot" cx="40" cy="39" r="4" fill="#FCEE0A"/>
  <text class="mono" x="54" y="44" font-size="13" font-weight="600" letter-spacing="2" fill="#FCEE0A">ACTIVITY.SYS</text>
  <text class="mono" x="178" y="44" font-size="12" letter-spacing="1" fill="#6B7A85">— NET TELEMETRY · 52W</text>
  <text class="mono" x="940" y="44" font-size="11" letter-spacing="1" fill="#6B7A85" text-anchor="end">SYNC 2026-08-29</text>
  <line x1="24" y1="62" x2="956" y2="62" stroke="#26333C"/>

  <rect class="scan" x="1" y="66" width="978" height="2" fill="#00F0FF" opacity=".07"/>

  <g class="fade f1">
    <text class="mono" x="40" y="100" font-size="11" letter-spacing="2" fill="#6B7A85">CONTRIBUTIONS / YR</text>
    <text class="mono" x="40" y="134" font-size="30" font-weight="700" fill="#FCEE0A">358</text>
    <text class="mono" x="280" y="100" font-size="11" letter-spacing="2" fill="#6B7A85">CURRENT STREAK</text>
    <text class="mono" x="280" y="134" font-size="30" font-weight="700" fill="#EAF6F9">0d</text>
    <text class="mono" x="520" y="100" font-size="11" letter-spacing="2" fill="#6B7A85">LONGEST STREAK</text>
    <text class="mono" x="520" y="134" font-size="30" font-weight="700" fill="#EAF6F9">4d</text>
    <text class="mono" x="760" y="100" font-size="11" letter-spacing="2" fill="#6B7A85">ACTIVE DAYS</text>
    <text class="mono" x="760" y="134" font-size="30" font-weight="700" fill="#EAF6F9">65</text>
  </g>
  <line x1="24" y1="152" x2="956" y2="152" stroke="#26333C"/>

  <g class="fade f2">
    <rect x="40" y="170" width="13" height="13" rx="2" fill="#101820"/>
    <rect x="40" y="186" width="13" height="13" rx="2" fill="#101820"/>
    <rect x="40" y="202" width="13" height="13" rx="2" fill="#101820"/>
    <rect x="40" y="218" width="13" height="13" rx="2" fill="#101820"/>
    <rect x="40" y="234" width="13" height="13" rx="2" fill="#101820"/>
    <rect x="40" y="250" width="13" height="13" rx="2" fill="#101820"/>
    <rect x="40" y="266" width="13" height="13" rx="2" fill="#101820"/>
    <rect x="56" y="170" width="13" height="13" rx="2" fill="#101820"/>
    <rect x="56" y="186" width="13" height="13" rx="2" fill="#101820"/>
    <rect x="56" y="202" width="13" height="13" rx="2" fill="#101820"/>
    <rect x="56" y="218" width="13" height="13" rx="2" fill="#101820"/>
    <rect x="56" y="234" width="13" height="13" rx="2" fill="#101820"/>
    <rect x="56" y="250" width="13" height="13" rx="2" fill="#101820"/>
    <rect x="56" y="266" width="13" height="13" rx="2" fill="#101820"/>
    <rect x="72" y="170" width="13" height="13" rx="2" fill="#101820"/>
    <rect x="72" y="186" width="13" height="13" rx="2" fill="#101820"/>
    <rect x="72" y="202" width="13" height="13" rx="2" fill="#101820"/>
    <rect x="72" y="218" width="13" height="13" rx="2" fill="#101820"/>
    <rect x="72" y="234" width="13" height="13" rx="2" fill="#101820"/>
    <rect x="72" y="250" width="13" height="13" rx="2" fill="#101820"/>
    <rect x="72" y="266" width="13" height="13" rx="2" fill="#101820"/>
    <rect x="88" y="170" width="13" height="13" rx="2" fill="#101820"/>
    <rect x="88" y="186" width="13" height="13" rx="2" fill="#101820"/>
    <rect x="88" y="202" width="13" height="13" rx="2" fill="#101820"/>
    <rect x="88" y="218" width="13" height="13" rx="2" fill="#101820"/>
    <rect x="88" y="234" width="13" height="13" rx="2" fill="#101820"/>
    <rect x="88" y="250" width="13" height="13" rx="2" fill="#101820"/>
    <rect x="88" y="266" width="13" height="13" rx="2" fill="#101820"/>
    <rect x="104" y="170" width="13" height="13" rx="2" fill="#101820"/>
    <rect x="104" y="186" width="13" height="13" rx="2" fill="#101820"/>
    <rect x="104" y="202" width="13" height="13" rx="2" fill="#101820"/>
    <rect x="104" y="218" width="13" height="13" rx="2" fill="#101820"/>
    <rect x="104" y="234" width="13" height="13" rx="2" fill="#101820"/>
    <rect x="104" y="250" width="13" height="13" rx="2" fill="#101820"/>
    <rect x="104" y="266" width="13" height="13" rx="2" fill="#101820"/>
    <rect x="120" y="170" width="13" height="13" rx="2" fill="#101820"/>
    <rect x="120" y="186" width="13" height="13" rx="2" fill="#101820"/>
    <rect x="120" y="202" width="13" height="13" rx="2" fill="#101820"/>
    <rect x="120" y="218" width="13" height="13" rx="2" fill="#101820"/>
    <rect x="120" y="234" width="13" height="13" rx="2" fill="#101820"/>
    <rect x="120" y="250" width="13" height="13" rx="2" fill="#101820"/>
    <rect x="120" y="266" width="13" height="13" rx="2" fill="#101820"/>
    <rect x="136" y="170" width="13" height="13" rx="2" fill="#101820"/>
    <rect x="136" y="186" width="13" height="13" rx="2" fill="#101820"/>
    <rect x="136" y="202" width="13" height="13" rx="2" fill="#101820"/>
    <rect x="136" y="218" width="13" height="13" rx="2" fill="#101820"/>
    <rect x="136" y="234" width="13" height="13" rx="2" fill="#101820"/>
    <rect x="136" y="250" width="13" height="13" rx="2" fill="#101820"/>
    <rect x="136" y="266" width="13" height="13" rx="2" fill="#101820"/>
    <rect x="152" y="170" width="13" height="13" rx="2" fill="#101820"/>
    <rect x="152" y="186" width="13" height="13" rx="2" fill="#101820"/>
    <rect x="152" y="202" width="13" height="13" rx="2" fill="#101820"/>
    <rect x="152" y="218" width="13" height="13" rx="2" fill="#101820"/>
    <rect x="152" y="234" width="13" height="13" rx="2" fill="#101820"/>
    <rect x="152" y="250" width="13" height="13" rx="2" fill="#101820"/>
    <rect x="152" y="266" width="13" height="13" rx="2" fill="#101820"/>
    <rect x="168" y="170" width="13" height="13" rx="2" fill="#101820"/>
    <rect x="168" y="186" width="13" height="13" rx="2" fill="#101820"/>
    <rect x="168" y="202" width="13" height="13" rx="2" fill="#101820"/>
    <rect x="168" y="218" width="13" height="13" rx="2" fill="#101820"/>
    <rect x="168" y="234" width="13" height="13" rx="2" fill="#101820"/>
    <rect x="168" y="250" width="13" height="13" rx="2" fill="#101820"/>
    <rect x="168" y="266" width="13" height="13" rx="2" fill="#101820"/>
    <rect x="184" y="170" width="13" height="13" rx="2" fill="#101820"/>
    <rect x="184" y="186" width="13" height="13" rx="2" fill="#101820"/>
    <rect x="184" y="202" width="13" height="13" rx="2" fill="#101820"/>
    <rect x="184" y="218" width="13" height="13" rx="2" fill="#101820"/>
    <rect x="184" y="234" width="13" height="13" rx="2" fill="#101820"/>
    <rect x="184" y="250" width="13" height="13" rx="2" fill="#101820"/>
    <rect x="184" y="266" width="13" height="13" rx="2" fill="#101820"/>
    <rect x="200" y="170" width="13" height="13" rx="2" fill="#101820"/>
    <rect x="200" y="186" width="13" height="13" rx="2" fill="#101820"/>
    <rect x="200" y="202" width="13" height="13" rx="2" fill="#101820"/>
    <rect x="200" y="218" width="13" height="13" rx="2" fill="#101820"/>
    <rect x="200" y="234" width="13" height="13" rx="2" fill="#101820"/>
    <rect x="200" y="250" width="13" height="13" rx="2" fill="#101820"/>
    <rect x="200" y="266" width="13" height="13" rx="2" fill="#101820"/>
    <rect x="216" y="170" width="13" height="13" rx="2" fill="#101820"/>
    <rect x="216" y="186" width="13" height="13" rx="2" fill="#101820"/>
    <rect x="216" y="202" width="13" height="13" rx="2" fill="#101820"/>
    <rect x="216" y="218" width="13" height="13" rx="2" fill="#101820"/>
    <rect x="216" y="234" width="13" height="13" rx="2" fill="#101820"/>
    <rect x="216" y="250" width="13" height="13" rx="2" fill="#101820"/>
    <rect x="216" y="266" width="13" height="13" rx="2" fill="#101820"/>
    <rect x="232" y="170" width="13" height="13" rx="2" fill="#086B7E"/>
    <rect x="232" y="186" width="13" height="13" rx="2" fill="#101820"/>
    <rect x="232" y="202" width="13" height="13" rx="2" fill="#0B3B46"/>
    <rect x="232" y="218" width="13" height="13" rx="2" fill="#101820"/>
    <rect x="232" y="234" width="13" height="13" rx="2" fill="#0B3B46"/>
    <rect x="232" y="250" width="13" height="13" rx="2" fill="#0B3B46"/>
    <rect x="232" y="266" width="13" height="13" rx="2" fill="#0B3B46"/>
    <rect x="248" y="170" width="13" height="13" rx="2" fill="#0B3B46"/>
    <rect x="248" y="186" width="13" height="13" rx="2" fill="#101820"/>
    <rect x="248" y="202" width="13" height="13" rx="2" fill="#0B3B46"/>
    <rect x="248" y="218" width="13" height="13" rx="2" fill="#101820"/>
    <rect x="248" y="234" width="13" height="13" rx="2" fill="#101820"/>
    <rect x="248" y="250" width="13" height="13" rx="2" fill="#101820"/>
    <rect x="248" y="266" width="13" height="13" rx="2" fill="#101820"/>
    <rect x="264" y="170" width="13" height="13" rx="2" fill="#101820"/>
    <rect x="264" y="186" width="13" height="13" rx="2" fill="#101820"/>
    <rect x="264" y="202" width="13" height="13" rx="2" fill="#101820"/>
    <rect x="264" y="218" width="13" height="13" rx="2" fill="#101820"/>
    <rect x="264" y="234" width="13" height="13" rx="2" fill="#0B3B46"/>
    <rect x="264" y="250" width="13" height="13" rx="2" fill="#101820"/>
    <rect x="264" y="266" width="13" height="13" rx="2" fill="#0B3B46"/>
    <rect x="280" y="170" width="13" height="13" rx="2" fill="#101820"/>
    <rect x="280" y="186" width="13" height="13" rx="2" fill="#101820"/>
    <rect x="280" y="202" width="13" height="13" rx="2" fill="#101820"/>
    <rect x="280" y="218" width="13" height="13" rx="2" fill="#0B3B46"/>
    <rect x="280" y="234" width="13" height="13" rx="2" fill="#101820"/>
    <rect x="280" y="250" width="13" height="13" rx="2" fill="#101820"/>
    <rect x="280" y="266" width="13" height="13" rx="2" fill="#04ABC4"/>
    <rect x="296" y="170" width="13" height="13" rx="2" fill="#101820"/>
    <rect x="296" y="186" width="13" height="13" rx="2" fill="#0B3B46"/>
    <rect x="296" y="202" width="13" height="13" rx="2" fill="#101820"/>
    <rect x="296" y="218" width="13" height="13" rx="2" fill="#0B3B46"/>
    <rect x="296" y="234" width="13" height="13" rx="2" fill="#0B3B46"/>
    <rect x="296" y="250" width="13" height="13" rx="2" fill="#101820"/>
    <rect x="296" y="266" width="13" height="13" rx="2" fill="#101820"/>
    <rect x="312" y="170" width="13" height="13" rx="2" fill="#0B3B46"/>
    <rect x="312" y="186" width="13" height="13" rx="2" fill="#101820"/>
    <rect x="312" y="202" width="13" height="13" rx="2" fill="#101820"/>
    <rect x="312" y="218" width="13" height="13" rx="2" fill="#101820"/>
    <rect x="312" y="234" width="13" height="13" rx="2" fill="#101820"/>
    <rect x="312" y="250" width="13" height="13" rx="2" fill="#101820"/>
    <rect x="312" y="266" width="13" height="13" rx="2" fill="#101820"/>
    <rect x="328" y="170" width="13" height="13" rx="2" fill="#101820"/>
    <rect x="328" y="186" width="13" height="13" rx="2" fill="#101820"/>
    <rect x="328" y="202" width="13" height="13" rx="2" fill="#101820"/>
    <rect x="328" y="218" width="13" height="13" rx="2" fill="#101820"/>
    <rect x="328" y="234" width="13" height="13" rx="2" fill="#101820"/>
    <rect x="328" y="250" width="13" height="13" rx="2" fill="#101820"/>
    <rect x="328" y="266" width="13" height="13" rx="2" fill="#0B3B46"/>
    <rect x="344" y="170" width="13" height="13" rx="2" fill="#101820"/>
    <rect x="344" y="186" width="13" height="13" rx="2" fill="#101820"/>
    <rect x="344" y="202" width="13" height="13" rx="2" fill="#101820"/>
    <rect x="344" y="218" width="13" height="13" rx="2" fill="#101820"/>
    <rect x="344" y="234" width="13" height="13" rx="2" fill="#101820"/>
    <rect x="344" y="250" width="13" height="13" rx="2" fill="#101820"/>
    <rect x="344" y="266" width="13" height="13" rx="2" fill="#101820"/>
    <rect x="360" y="170" width="13" height="13" rx="2" fill="#101820"/>
    <rect x="360" y="186" width="13" height="13" rx="2" fill="#101820"/>
    <rect x="360" y="202" width="13" height="13" rx="2" fill="#101820"/>
    <rect x="360" y="218" width="13" height="13" rx="2" fill="#101820"/>
    <rect x="360" y="234" width="13" height="13" rx="2" fill="#101820"/>
    <rect x="360" y="250" width="13" height="13" rx="2" fill="#101820"/>
    <rect x="360" y="266" width="13" height="13" rx="2" fill="#101820"/>
    <rect x="376" y="170" width="13" height="13" rx="2" fill="#101820"/>
    <rect x="376" y="186" width="13" height="13" rx="2" fill="#101820"/>
    <rect x="376" y="202" width="13" height="13" rx="2" fill="#101820"/>
    <rect x="376" y="218" width="13" height="13" rx="2" fill="#101820"/>
    <rect x="376" y="234" width="13" height="13" rx="2" fill="#101820"/>
    <rect x="376" y="250" width="13" height="13" rx="2" fill="#101820"/>
    <rect x="376" y="266" width="13" height="13" rx="2" fill="#101820"/>
    <rect x="392" y="170" width="13" height="13" rx="2" fill="#101820"/>
    <rect x="392" y="186" width="13" height="13" rx="2" fill="#101820"/>
    <rect x="392" y="202" width="13" height="13" rx="2" fill="#101820"/>
    <rect x="392" y="218" width="13" height="13" rx="2" fill="#101820"/>
    <rect x="392" y="234" width="13" height="13" rx="2" fill="#101820"/>
    <rect x="392" y="250" width="13" height="13" rx="2" fill="#101820"/>
    <rect x="392" y="266" width="13" height="13" rx="2" fill="#101820"/>
    <rect x="408" y="170" width="13" height="13" rx="2" fill="#101820"/>
    <rect x="408" y="186" width="13" height="13" rx="2" fill="#101820"/>
    <rect x="408" y="202" width="13" height="13" rx="2" fill="#101820"/>
    <rect x="408" y="218" width="13" height="13" rx="2" fill="#101820"/>
    <rect x="408" y="234" width="13" height="13" rx="2" fill="#101820"/>
    <rect x="408" y="250" width="13" height="13" rx="2" fill="#0B3B46"/>
    <rect x="408" y="266" width="13" height="13" rx="2" fill="#101820"/>
    <rect x="424" y="170" width="13" height="13" rx="2" fill="#101820"/>
    <rect x="424" y="186" width="13" height="13" rx="2" fill="#101820"/>
    <rect x="424" y="202" width="13" height="13" rx="2" fill="#101820"/>
    <rect x="424" y="218" width="13" height="13" rx="2" fill="#101820"/>
    <rect x="424" y="234" width="13" height="13" rx="2" fill="#101820"/>
    <rect x="424" y="250" width="13" height="13" rx="2" fill="#101820"/>
    <rect x="424" y="266" width="13" height="13" rx="2" fill="#101820"/>
    <rect x="440" y="170" width="13" height="13" rx="2" fill="#101820"/>
    <rect x="440" y="186" width="13" height="13" rx="2" fill="#101820"/>
    <rect x="440" y="202" width="13" height="13" rx="2" fill="#0B3B46"/>
    <rect x="440" y="218" width="13" height="13" rx="2" fill="#101820"/>
    <rect x="440" y="234" width="13" height="13" rx="2" fill="#101820"/>
    <rect x="440" y="250" width="13" height="13" rx="2" fill="#101820"/>
    <rect x="440" y="266" width="13" height="13" rx="2" fill="#101820"/>
    <rect x="456" y="170" width="13" height="13" rx="2" fill="#101820"/>
    <rect x="456" y="186" width="13" height="13" rx="2" fill="#101820"/>
    <rect x="456" y="202" width="13" height="13" rx="2" fill="#0B3B46"/>
    <rect x="456" y="218" width="13" height="13" rx="2" fill="#101820"/>
    <rect x="456" y="234" width="13" height="13" rx="2" fill="#101820"/>
    <rect x="456" y="250" width="13" height="13" rx="2" fill="#101820"/>
    <rect x="456" y="266" width="13" height="13" rx="2" fill="#0B3B46"/>
    <rect x="472" y="170" width="13" height="13" rx="2" fill="#086B7E"/>
    <rect x="472" y="186" width="13" height="13" rx="2" fill="#101820"/>
    <rect x="472" y="202" width="13" height="13" rx="2" fill="#0B3B46"/>
    <rect x="472" y="218" width="13" height="13" rx="2" fill="#101820"/>
    <rect x="472" y="234" width="13" height="13" rx="2" fill="#101820"/>
    <rect x="472" y="250" width="13" height="13" rx="2" fill="#101820"/>
    <rect x="472" y="266" width="13" height="13" rx="2" fill="#0B3B46"/>
    <rect x="488" y="170" width="13" height="13" rx="2" fill="#101820"/>
    <rect x="488" y="186" width="13" height="13" rx="2" fill="#101820"/>
    <rect x="488" y="202" width="13" height="13" rx="2" fill="#0B3B46"/>
    <rect x="488" y="218" width="13" height="13" rx="2" fill="#0B3B46"/>
    <rect x="488" y="234" width="13" height="13" rx="2" fill="#101820"/>
    <rect x="488" y="250" width="13" height="13" rx="2" fill="#0B3B46"/>
    <rect x="488" y="266" width="13" height="13" rx="2" fill="#101820"/>
    <rect x="504" y="170" width="13" height="13" rx="2" fill="#0B3B46"/>
    <rect x="504" y="186" width="13" height="13" rx="2" fill="#101820"/>
    <rect x="504" y="202" width="13" height="13" rx="2" fill="#101820"/>
    <rect x="504" y="218" width="13" height="13" rx="2" fill="#101820"/>
    <rect x="504" y="234" width="13" height="13" rx="2" fill="#101820"/>
    <rect x="504" y="250" width="13" height="13" rx="2" fill="#101820"/>
    <rect x="504" y="266" width="13" height="13" rx="2" fill="#101820"/>
    <rect x="520" y="170" width="13" height="13" rx="2" fill="#101820"/>
    <rect x="520" y="186" width="13" height="13" rx="2" fill="#101820"/>
    <rect x="520" y="202" width="13" height="13" rx="2" fill="#101820"/>
    <rect x="520" y="218" width="13" height="13" rx="2" fill="#101820"/>
    <rect x="520" y="234" width="13" height="13" rx="2" fill="#101820"/>
    <rect x="520" y="250" width="13" height="13" rx="2" fill="#101820"/>
    <rect x="520" y="266" width="13" height="13" rx="2" fill="#101820"/>
    <rect x="536" y="170" width="13" height="13" rx="2" fill="#101820"/>
    <rect x="536" y="186" width="13" height="13" rx="2" fill="#101820"/>
    <rect x="536" y="202" width="13" height="13" rx="2" fill="#101820"/>
    <rect x="536" y="218" width="13" height="13" rx="2" fill="#101820"/>
    <rect x="536" y="234" width="13" height="13" rx="2" fill="#101820"/>
    <rect x="536" y="250" width="13" height="13" rx="2" fill="#101820"/>
    <rect x="536" y="266" width="13" height="13" rx="2" fill="#101820"/>
    <rect x="552" y="170" width="13" height="13" rx="2" fill="#101820"/>
    <rect x="552" y="186" width="13" height="13" rx="2" fill="#101820"/>
    <rect x="552" y="202" width="13" height="13" rx="2" fill="#101820"/>
    <rect x="552" y="218" width="13" height="13" rx="2" fill="#101820"/>
    <rect x="552" y="234" width="13" height="13" rx="2" fill="#101820"/>
    <rect x="552" y="250" width="13" height="13" rx="2" fill="#101820"/>
    <rect x="552" y="266" width="13" height="13" rx="2" fill="#101820"/>
    <rect x="568" y="170" width="13" height="13" rx="2" fill="#101820"/>
    <rect x="568" y="186" width="13" height="13" rx="2" fill="#101820"/>
    <rect x="568" y="202" width="13" height="13" rx="2" fill="#101820"/>
    <rect x="568" y="218" width="13" height="13" rx="2" fill="#101820"/>
    <rect x="568" y="234" width="13" height="13" rx="2" fill="#0B3B46"/>
    <rect x="568" y="250" width="13" height="13" rx="2" fill="#0B3B46"/>
    <rect x="568" y="266" width="13" height="13" rx="2" fill="#101820"/>
    <rect x="584" y="170" width="13" height="13" rx="2" fill="#0B3B46"/>
    <rect x="584" y="186" width="13" height="13" rx="2" fill="#0B3B46"/>
    <rect x="584" y="202" width="13" height="13" rx="2" fill="#101820"/>
    <rect x="584" y="218" width="13" height="13" rx="2" fill="#101820"/>
    <rect x="584" y="234" width="13" height="13" rx="2" fill="#101820"/>
    <rect x="584" y="250" width="13" height="13" rx="2" fill="#101820"/>
    <rect x="584" y="266" width="13" height="13" rx="2" fill="#101820"/>
    <rect x="600" y="170" width="13" height="13" rx="2" fill="#101820"/>
    <rect x="600" y="186" width="13" height="13" rx="2" fill="#101820"/>
    <rect x="600" y="202" width="13" height="13" rx="2" fill="#101820"/>
    <rect x="600" y="218" width="13" height="13" rx="2" fill="#0B3B46"/>
    <rect x="600" y="234" width="13" height="13" rx="2" fill="#101820"/>
    <rect x="600" y="250" width="13" height="13" rx="2" fill="#101820"/>
    <rect x="600" y="266" width="13" height="13" rx="2" fill="#101820"/>
    <rect x="616" y="170" width="13" height="13" rx="2" fill="#101820"/>
    <rect x="616" y="186" width="13" height="13" rx="2" fill="#101820"/>
    <rect x="616" y="202" width="13" height="13" rx="2" fill="#0B3B46"/>
    <rect x="616" y="218" width="13" height="13" rx="2" fill="#0B3B46"/>
    <rect x="616" y="234" width="13" height="13" rx="2" fill="#101820"/>
    <rect x="616" y="250" width="13" height="13" rx="2" fill="#101820"/>
    <rect x="616" y="266" width="13" height="13" rx="2" fill="#101820"/>
    <rect x="632" y="170" width="13" height="13" rx="2" fill="#101820"/>
    <rect x="632" y="186" width="13" height="13" rx="2" fill="#101820"/>
    <rect x="632" y="202" width="13" height="13" rx="2" fill="#101820"/>
    <rect x="632" y="218" width="13" height="13" rx="2" fill="#101820"/>
    <rect x="632" y="234" width="13" height="13" rx="2" fill="#101820"/>
    <rect x="632" y="250" width="13" height="13" rx="2" fill="#101820"/>
    <rect x="632" y="266" width="13" height="13" rx="2" fill="#101820"/>
    <rect x="648" y="170" width="13" height="13" rx="2" fill="#101820"/>
    <rect x="648" y="186" width="13" height="13" rx="2" fill="#101820"/>
    <rect x="648" y="202" width="13" height="13" rx="2" fill="#0B3B46"/>
    <rect x="648" y="218" width="13" height="13" rx="2" fill="#101820"/>
    <rect x="648" y="234" width="13" height="13" rx="2" fill="#101820"/>
    <rect x="648" y="250" width="13" height="13" rx="2" fill="#101820"/>
    <rect x="648" y="266" width="13" height="13" rx="2" fill="#0B3B46"/>
    <rect x="664" y="170" width="13" height="13" rx="2" fill="#086B7E"/>
    <rect x="664" y="186" width="13" height="13" rx="2" fill="#086B7E"/>
    <rect x="664" y="202" width="13" height="13" rx="2" fill="#101820"/>
    <rect x="664" y="218" width="13" height="13" rx="2" fill="#0B3B46"/>
    <rect x="664" y="234" width="13" height="13" rx="2" fill="#101820"/>
    <rect x="664" y="250" width="13" height="13" rx="2" fill="#101820"/>
    <rect x="664" y="266" width="13" height="13" rx="2" fill="#101820"/>
    <rect x="680" y="170" width="13" height="13" rx="2" fill="#101820"/>
    <rect x="680" y="186" width="13" height="13" rx="2" fill="#0B3B46"/>
    <rect x="680" y="202" width="13" height="13" rx="2" fill="#101820"/>
    <rect x="680" y="218" width="13" height="13" rx="2" fill="#086B7E"/>
    <rect x="680" y="234" width="13" height="13" rx="2" fill="#086B7E"/>
    <rect x="680" y="250" width="13" height="13" rx="2" fill="#086B7E"/>
    <rect x="680" y="266" width="13" height="13" rx="2" fill="#0B3B46"/>
    <rect x="696" y="170" width="13" height="13" rx="2" fill="#101820"/>
    <rect x="696" y="186" width="13" height="13" rx="2" fill="#0B3B46"/>
    <rect x="696" y="202" width="13" height="13" rx="2" fill="#101820"/>
    <rect x="696" y="218" width="13" height="13" rx="2" fill="#101820"/>
    <rect x="696" y="234" width="13" height="13" rx="2" fill="#101820"/>
    <rect x="696" y="250" width="13" height="13" rx="2" fill="#101820"/>
    <rect x="696" y="266" width="13" height="13" rx="2" fill="#101820"/>
    <rect x="712" y="170" width="13" height="13" rx="2" fill="#101820"/>
    <rect x="712" y="186" width="13" height="13" rx="2" fill="#101820"/>
    <rect x="712" y="202" width="13" height="13" rx="2" fill="#101820"/>
    <rect x="712" y="218" width="13" height="13" rx="2" fill="#0B3B46"/>
    <rect x="712" y="234" width="13" height="13" rx="2" fill="#00F0FF"/>
    <rect x="712" y="250" width="13" height="13" rx="2" fill="#0B3B46"/>
    <rect x="712" y="266" width="13" height="13" rx="2" fill="#0B3B46"/>
    <rect x="728" y="170" width="13" height="13" rx="2" fill="#101820"/>
    <rect x="728" y="186" width="13" height="13" rx="2" fill="#101820"/>
    <rect x="728" y="202" width="13" height="13" rx="2" fill="#101820"/>
    <rect x="728" y="218" width="13" height="13" rx="2" fill="#101820"/>
    <rect x="728" y="234" width="13" height="13" rx="2" fill="#101820"/>
    <rect x="728" y="250" width="13" height="13" rx="2" fill="#0B3B46"/>
    <rect x="728" y="266" width="13" height="13" rx="2" fill="#0B3B46"/>
    <rect x="744" y="170" width="13" height="13" rx="2" fill="#0B3B46"/>
    <rect x="744" y="186" width="13" height="13" rx="2" fill="#0B3B46"/>
    <rect x="744" y="202" width="13" height="13" rx="2" fill="#101820"/>
    <rect x="744" y="218" width="13" height="13" rx="2" fill="#101820"/>
    <rect x="744" y="234" width="13" height="13" rx="2" fill="#0B3B46"/>
    <rect x="744" y="250" width="13" height="13" rx="2" fill="#101820"/>
    <rect x="744" y="266" width="13" height="13" rx="2" fill="#0B3B46"/>
    <rect x="760" y="170" width="13" height="13" rx="2" fill="#101820"/>
    <rect x="760" y="186" width="13" height="13" rx="2" fill="#101820"/>
    <rect x="760" y="202" width="13" height="13" rx="2" fill="#101820"/>
    <rect x="760" y="218" width="13" height="13" rx="2" fill="#101820"/>
    <rect x="760" y="234" width="13" height="13" rx="2" fill="#101820"/>
    <rect x="760" y="250" width="13" height="13" rx="2" fill="#101820"/>
    <rect x="760" y="266" width="13" height="13" rx="2" fill="#101820"/>
    <rect x="776" y="170" width="13" height="13" rx="2" fill="#101820"/>
    <rect x="776" y="186" width="13" height="13" rx="2" fill="#101820"/>
    <rect x="776" y="202" width="13" height="13" rx="2" fill="#101820"/>
    <rect x="776" y="218" width="13" height="13" rx="2" fill="#101820"/>
    <rect x="776" y="234" width="13" height="13" rx="2" fill="#101820"/>
    <rect x="776" y="250" width="13" height="13" rx="2" fill="#101820"/>
    <rect x="776" y="266" width="13" height="13" rx="2" fill="#101820"/>
    <rect x="792" y="170" width="13" height="13" rx="2" fill="#0B3B46"/>
    <rect x="792" y="186" width="13" height="13" rx="2" fill="#086B7E"/>
    <rect x="792" y="202" width="13" height="13" rx="2" fill="#086B7E"/>
    <rect x="792" y="218" width="13" height="13" rx="2" fill="#0B3B46"/>
    <rect x="792" y="234" width="13" height="13" rx="2" fill="#101820"/>
    <rect x="792" y="250" width="13" height="13" rx="2" fill="#101820"/>
    <rect x="792" y="266" width="13" height="13" rx="2" fill="#101820"/>
    <rect x="808" y="170" width="13" height="13" rx="2" fill="#101820"/>
    <rect x="808" y="186" width="13" height="13" rx="2" fill="#101820"/>
    <rect x="808" y="202" width="13" height="13" rx="2" fill="#101820"/>
    <rect x="808" y="218" width="13" height="13" rx="2" fill="#101820"/>
    <rect x="808" y="234" width="13" height="13" rx="2" fill="#101820"/>
    <rect x="808" y="250" width="13" height="13" rx="2" fill="#101820"/>
    <rect x="808" y="266" width="13" height="13" rx="2" fill="#101820"/>
    <rect x="824" y="170" width="13" height="13" rx="2" fill="#0B3B46"/>
    <rect x="824" y="186" width="13" height="13" rx="2" fill="#101820"/>
    <rect x="824" y="202" width="13" height="13" rx="2" fill="#101820"/>
    <rect x="824" y="218" width="13" height="13" rx="2" fill="#101820"/>
    <rect x="824" y="234" width="13" height="13" rx="2" fill="#0B3B46"/>
    <rect x="824" y="250" width="13" height="13" rx="2" fill="#101820"/>
    <rect x="824" y="266" width="13" height="13" rx="2" fill="#0B3B46"/>
    <rect x="840" y="170" width="13" height="13" rx="2" fill="#0B3B46"/>
    <rect x="840" y="186" width="13" height="13" rx="2" fill="#101820"/>
    <rect x="840" y="202" width="13" height="13" rx="2" fill="#101820"/>
    <rect x="840" y="218" width="13" height="13" rx="2" fill="#101820"/>
    <rect x="840" y="234" width="13" height="13" rx="2" fill="#0B3B46"/>
    <rect x="840" y="250" width="13" height="13" rx="2" fill="#101820"/>
    <rect x="840" y="266" width="13" height="13" rx="2" fill="#101820"/>
    <rect x="856" y="170" width="13" height="13" rx="2" fill="#0B3B46"/>
    <rect x="856" y="186" width="13" height="13" rx="2" fill="#101820"/>
    <rect x="856" y="202" width="13" height="13" rx="2" fill="#101820"/>
    <rect x="856" y="218" width="13" height="13" rx="2" fill="#101820"/>
    <rect x="856" y="234" width="13" height="13" rx="2" fill="#101820"/>
    <rect x="856" y="250" width="13" height="13" rx="2" fill="#101820"/>
    <rect x="856" y="266" width="13" height="13" rx="2" fill="#101820"/>
  </g>

  <line x1="24" y1="306" x2="956" y2="306" stroke="#26333C"/>
  <text class="mono" x="40" y="326" font-size="10" letter-spacing="2" fill="#6B7A85">// SYNCED DAILY VIA GITHUB ACTIONS</text>
  <text class="mono" x="940" y="326" font-size="10" letter-spacing="2" fill="#6B7A85" text-anchor="end">NIGHT CITY ⇌ HCMC</text>
</svg>
